<svg width="626" height="206" viewBox="0 0 626 206" fill="none" xmlns="http://www.w3.org/2000/svg">
<path d="M601.546 144.881C602.577 145.094 603.153 146.311 603.66 147.121C604.733 148.834 605.678 150.63 606.612 152.421C607.132 153.417 607.573 154.452 608.103 155.442C608.639 156.445 608.922 155.608 609.34 154.896C611.859 150.605 614.878 146.356 617.972 142.464C619.457 140.597 621.333 139.132 622.902 137.35C623.281 136.92 623.551 136.444 623.993 136.112" stroke="black" stroke-width="3" stroke-linecap="round"/>
<path d="M609 153C606.144 126.068 605.963 111.582 584.444 87.6111C567.806 69.0767 550.088 50.0715 527.889 38.7778C452.162 0.252258 370.85 -7.03093 287.667 10.8889C242.253 20.6721 199.262 40.6602 158.056 62.1111C96.1321 94.3469 60.829 126.483 17.3889 175.333C1.7039 192.972 2.00003 189.91 2.00003 204" stroke="black" stroke-width="3" stroke-linecap="round"/>
</svg>
