<svg width="107" height="144" viewBox="0 0 107 144" fill="none" xmlns="http://www.w3.org/2000/svg">
<path d="M1.59459 6.51621C4.83528 4.0857 10.2865 3.18736 14.123 2.66892C25.633 1.11351 39.0505 1.10405 50.5736 2.66892C65.679 4.72027 81.6278 22.0151 82.3385 37.2946C83.3092 58.1645 62.3953 62.8651 45.8878 66.2973C41.4624 67.2174 23.9773 71.6042 22.1135 63.6831C19.3232 51.8242 54.1284 55.276 59.7973 55.3473C64.3497 55.4046 72.7873 54.7018 76.2223 58.652C80.231 63.262 84.0686 68.1307 86.827 73.5973C94.2559 88.3201 96.5901 107.982 91.2662 123.809C89.4282 129.274 85.8331 135.465 83.2757 140.58" stroke="#D32E34" stroke-width="3" stroke-linecap="round"/>
<path d="M78.9437 127.57C78.3809 130.478 80.0817 134.315 80.9336 137.121C81.3034 138.339 81.3201 139.639 82.216 140.57C84.1359 142.567 84.5567 142.011 87.3455 140.924C93.1121 138.677 99.1277 137.033 105.21 135.927" stroke="#D32E34" stroke-width="3" stroke-linecap="round"/>
</svg>
