<svg width="288" height="111" viewBox="0 0 288 111" fill="none" xmlns="http://www.w3.org/2000/svg">
<path d="M2.30884 1.60742C2.30884 11.3814 3.42889 19.6516 9.06962 27.956C23.9558 49.8717 47.5043 63.0251 71.6764 73.0587C92.7091 81.7893 114.378 85.2309 137.108 84.2187C147.115 83.773 163.882 83.6639 165.772 70.6045C168.325 52.9638 154.052 38.8941 139.099 32.9571C127.31 28.2763 116.806 30.7356 111.037 43.0057C101.762 62.7326 114.005 80.903 130.486 91.6278C165.003 114.089 216.929 115.02 251.902 93.1096C265.658 84.4916 275.14 68.6952 285.706 56.6198" stroke="#FBDE4B" stroke-width="3" stroke-linecap="round"/>
<path d="M275.704 59.1204C265.614 59.1204 277.877 59.1204 281.539 59.1204C285.035 59.1204 283.206 68.6171 283.206 71.6232" stroke="#FBDE4B" stroke-width="3" stroke-linecap="round"/>
</svg>
