<svg width="372" height="357" viewBox="0 0 372 357" fill="none" xmlns="http://www.w3.org/2000/svg">
<path d="M1.82956 355.012C20.7891 316.348 43.0314 283.43 70.8827 250.18C113.222 199.634 160.123 152.702 214.928 115.58C261.312 84.1632 314.108 60.2047 368.92 48.4592" stroke="black" stroke-width="3" stroke-linecap="round"/>
<path d="M356.693 36.7698C361.106 40.275 364.53 45.3443 369.492 48.0559C370.833 48.789 370.295 48.7986 369.376 50.189C366.81 54.0696 364.813 58.1604 362.627 62.2508" stroke="black" stroke-width="3" stroke-linecap="round"/>
<path d="M312.896 11.401C316.792 13.9983 319.872 17.5288 323.257 20.7264" stroke="black" stroke-width="3" stroke-linecap="round"/>
<path d="M327.402 12.4371C329.646 14.1536 329.595 16.1378 330.51 18.654" stroke="black" stroke-width="3" stroke-linecap="round"/>
<path d="M336.727 16.5817C337.164 11.2376 339.13 7.08216 340.872 2.07562" stroke="black" stroke-width="3" stroke-linecap="round"/>
</svg>
